<svg xmlns="http://www.w3.org/2000/svg" viewBox="0 0 500 500"><defs><style>.a{opacity:0.2;}.b{fill:#000072;}.c{fill:#8e8fb3;}.d{opacity:0.15;}.e{opacity:0.5;}.f{fill:#fff;}.g{fill:#f27e80;}.h{fill:#ff5c64;}.i{fill:#e8e8e8;}.j{fill:#686868;}.k{fill:#00bdff;}.l{opacity:0.4;}.m{fill:#61619b;}.n{opacity:0.35;}.o{fill:#ff9499;}.p{fill:#ff0068;}</style></defs><g class="a"><ellipse class="b" cx="242.44" cy="472.71" rx="174.1" ry="16.29"/></g><path class="c" d="M156.09,428.57c-43.33,24.8-84.47,2.16-90.71-32.13A52.24,52.24,0,0,1,66,375.16a61.21,61.21,0,0,1,4.73-13.09c1.9-3.88,3.85-7.77,5.75-11.67C83.1,336.8,89,323.22,90.07,310.56a38.22,38.22,0,0,0-2.26-17.34,19.31,19.31,0,0,0-5.26-7.41,21,21,0,0,0-9.36-4.73,18.08,18.08,0,0,0-4.56-.39c-9.76.42-18.61,9.24-15,31.24,5,30.91-28.62,40.57-41,14.07-.55-1.18-1-2.42-1.5-3.71l-.45-1.37C3,296.24,12.3,253.5,50.45,244.55q2.63-.63,5.44-1a66.61,66.61,0,0,1,7.59-.64A60.52,60.52,0,0,1,76.74,244c31,6.07,50.5,36.55,40.73,74.8C112.22,339.28,91,378,100,396.68c2.85,5.92,11.59,10.52,21.94,10l.81,0h0c7.46-.54,15.7-3.73,23.12-11Z"/><g class="d"><path class="b" d="M156.09,428.57c-43.33,24.8-84.48,2.15-90.71-32.13,5.23,17.31,33.55,28.5,56.52,10.28l.81,0h0c7.47-.54,15.71-3.74,23.13-11Z"/></g><path class="c" d="M392.64,209c-6.77,67.59-87.22,76.21-125.14,83.74H219.65c-24.51-4.87-66.79-10.19-95.45-31.6a76.4,76.4,0,0,1-18-18.54,68.64,68.64,0,0,1-8.43-17.37,77.57,77.57,0,0,1-3.07-14c-.24-1.9-.42-3.84-.54-5.84a108,108,0,0,1,.62-18.87c.69-5.83,5.16-25.78,11.25-45.33,2.07-6.66,4.33-13.27,6.69-19.26-8.65-38.39-12.17-86.73.83-103.38,8.45-10.84,31.34,0,66,29.73,24.78-10.9,58.74-11.54,64-11.52s39.17.62,63.94,11.52c34.68-29.7,57.57-40.57,66-29.73,13,16.65,9.47,65,.82,103.38,9.3,23.58,17,56.78,17.94,64.59A103.15,103.15,0,0,1,392.64,209Z"/><g class="e"><path class="f" d="M382.05,63.4c-.43-15.34-3-28.17-8.5-35.25-8.46-10.83-31.35,0-66,29.74C282.75,47,248.79,46.35,243.58,46.37s-39.17.62-64,11.52c-34.69-29.7-57.58-40.57-66-29.74-5.53,7.08-8.07,19.91-8.5,35.25-.48-19.54,1.84-36.37,8.5-44.89,8.45-10.84,31.34,0,66,29.73,24.78-10.9,58.74-11.54,64-11.52s39.17.62,63.94,11.52c34.68-29.7,57.57-40.57,66-29.73C380.2,27,382.53,43.86,382.05,63.4Z"/></g><path class="f" d="M392.64,209c-6.77,67.59-87.22,76.21-125.14,83.74H219.65c-24.51-4.87-66.79-10.19-95.45-31.6a76.4,76.4,0,0,1-18-18.54,68.64,68.64,0,0,1-8.43-17.37,77.57,77.57,0,0,1-3.07-14c58.59,50.28,100.87,27.73,119.78-10.68,7.3-14.83,21.67-16.25,27.91-16.25s20.62,1.42,27.91,16.25C289.53,239.47,332.76,262.12,392.64,209Z"/><g class="d"><path class="b" d="M386,233.58c-21.38,45.34-85.79,52.65-118.52,59.16H219.65c-24.51-4.87-66.79-10.19-95.45-31.6a76.4,76.4,0,0,1-18-18.54,68.32,68.32,0,0,1-5.12-9,93.62,93.62,0,0,0,9.92,8.52c21.83,16.3,97.72,24.49,132.52,24.49S363.68,255.82,386,233.58Z"/></g><path class="b" d="M156.14,115.8c-1.76-2.74,9.89-27.23,31.86-20,7.91,2.61,8.66,10.32,2.52,12-5.84,1.57-8.47.31-17.53,3.49C167.86,113.05,157.9,118.54,156.14,115.8Z"/><path class="b" d="M331,115.8c1.76-2.74-9.9-27.23-31.86-20-7.91,2.61-8.66,10.32-2.53,12,5.85,1.57,8.48.31,17.54,3.49C319.28,113.05,329.25,118.54,331,115.8Z"/><path class="g" d="M143.88,77.21c-10.66,11.36-17.39,27.27-18.34,25.41a5.89,5.89,0,0,1-.27-.64c-2-5.21-5.36-25.86-5.32-44.26,0-3,.1-5.59.26-7.9.41-6.23,1.31-10.23,2.4-12.78a5.33,5.33,0,0,1,7.07-3c7.14,2.81,27.42,16.18,34,24.74C164.87,60.27,154.56,65.84,143.88,77.21Z"/><path class="h" d="M143.88,77.21c-10.66,11.36-17.39,27.27-18.34,25.41a5.89,5.89,0,0,1-.27-.64c2.39-9.65,8.94-23,14-32.62,6.87-13.16-2.55-23.64-10.73-26.79-2.8-1.08-6.14,3.53-8.3,7.25.41-6.23,1.31-10.23,2.4-12.78a5.33,5.33,0,0,1,7.07-3c7.14,2.81,27.42,16.18,34,24.74C164.87,60.27,154.56,65.84,143.88,77.21Z"/><path class="b" d="M125.8,106.31h-.18a3.79,3.79,0,0,1-3.23-2.08c-2.4-4.7-6-27.4-6-46.52h0c0-10.3,1-17.52,2.94-22.07A8.84,8.84,0,0,1,131,30.72c7.55,3,28.32,16.52,35.53,25.87.86,1.12,1.84,3.47-1.34,6.53-1,1-2.46,2.13-4.3,3.59a128.5,128.5,0,0,0-14.4,12.92c-5.9,6.28-10.61,14.13-13.72,19.33C129.48,104.4,128.33,106.31,125.8,106.31Zm2.9-5.3h0Zm-5.2-43.28a206.68,206.68,0,0,0,3.53,37c3.27-5.44,8.09-13.33,14.27-19.93a136.35,136.35,0,0,1,15.15-13.6c1-.76,2-1.56,2.76-2.23-7.53-8-24.91-19.31-30.82-21.64a1.81,1.81,0,0,0-2.53,1.13c-1,2.47-2.33,7.83-2.36,19.29Z"/><path class="g" d="M343.64,77.21C354.3,88.57,361,104.48,362,102.62a5.78,5.78,0,0,0,.28-.64c2-5.21,5.36-25.86,5.31-44.26,0-3-.09-5.59-.25-7.9-.42-6.23-1.31-10.23-2.4-12.78a5.34,5.34,0,0,0-7.08-3c-7.14,2.81-27.41,16.18-34,24.74C322.64,60.27,333,65.84,343.64,77.21Z"/><path class="h" d="M343.64,77.21C354.3,88.57,361,104.48,362,102.62a5.78,5.78,0,0,0,.28-.64c-2.39-9.65-8.95-23-14-32.62C341.41,56.2,350.83,45.72,359,42.57c2.81-1.08,6.15,3.53,8.31,7.25-.42-6.23-1.31-10.23-2.4-12.78a5.34,5.34,0,0,0-7.08-3c-7.14,2.81-27.41,16.18-34,24.74C322.64,60.27,333,65.84,343.64,77.21Z"/><path class="b" d="M361.72,106.31c-2.54,0-3.69-1.91-7-7.35-3.12-5.2-7.82-13-13.72-19.33a129.39,129.39,0,0,0-14.4-12.92c-1.84-1.46-3.29-2.61-4.3-3.59-3.19-3.06-2.21-5.41-1.34-6.53,7.21-9.35,28-22.9,35.53-25.87a8.83,8.83,0,0,1,11.62,4.91c1.95,4.56,2.91,11.78,2.94,22.08h0c0,19.12-3.57,41.82-6,46.52a3.79,3.79,0,0,1-3.23,2.08ZM328.31,59c.8.67,1.81,1.47,2.75,2.23a136.3,136.3,0,0,1,15.16,13.6c6.18,6.6,11,14.49,14.27,19.93a208.56,208.56,0,0,0,3.53-37h0c0-11.46-1.31-16.82-2.37-19.3a1.8,1.8,0,0,0-2.52-1.12C353.22,39.64,335.84,50.91,328.31,59Z"/><path class="b" d="M267.2,291.25c10.26-2.77,20.59-4.81,30.77-7.26a298.73,298.73,0,0,0,30.08-8.46c2.44-.88,4.88-1.75,7.26-2.75s4.75-2,7.11-3.08c1.17-.53,2.3-1.14,3.46-1.71s2.31-1.14,3.41-1.79l3.35-1.9c1.1-.66,2.16-1.36,3.24-2l1.62-1c.53-.37,1-.75,1.55-1.12l3.1-2.24,2.94-2.43c.49-.41,1-.79,1.46-1.22l1.38-1.31a70.26,70.26,0,0,0,9.91-11.41l2.05-3.17c.17-.26.35-.52.51-.79l.44-.83.88-1.67.89-1.66c.15-.28.3-.55.44-.84l.37-.87,1.47-3.47.37-.87.3-.89.58-1.8c.37-1.21.83-2.38,1.12-3.61l.85-3.69.43-1.85.27-1.88.54-3.77c0-.31.1-.62.13-.94l.06-1,.12-1.91.24-3.8c0-1.28,0-2.56,0-3.83l-.06-3.84-.32-3.83-.33-3.83-.26-1.82-.33-1.88c-1-5.06-2.14-10.17-3.39-15.25s-2.58-10.14-4-15.17c-2.86-10.07-6-20-9.81-29.71l-.37-.93.22-1a327,327,0,0,0,6.85-44.73,211.59,211.59,0,0,0,.66-22.5A99.6,99.6,0,0,0,376,32a36.25,36.25,0,0,0-3.88-9.65,9,9,0,0,0-.68-1l-.35-.5a2.94,2.94,0,0,0-.34-.44,5.74,5.74,0,0,0-.68-.71l-.35-.32c-.12-.1-.26-.18-.39-.27a7.7,7.7,0,0,0-3.75-1.29,16.4,16.4,0,0,0-4.72.32,32.86,32.86,0,0,0-5,1.42A69.69,69.69,0,0,0,346,24.2a169.67,169.67,0,0,0-18.65,12.42c-6,4.52-11.87,9.32-17.62,14.24l-1.63,1.4-2-.86a113.49,113.49,0,0,0-14.95-5.12c-5.12-1.39-10.37-2.43-15.64-3.31s-10.61-1.51-16-2-10.73-.74-16-.76-10.68.31-16,.77-10.67,1.11-15.95,2S201.09,44.9,196,46.29A114.36,114.36,0,0,0,181,51.42l-2,.86-1.64-1.4c-5.75-4.92-11.6-9.72-17.62-14.24A168.16,168.16,0,0,0,141.1,24.23a69.06,69.06,0,0,0-9.84-4.63,34,34,0,0,0-5-1.41,16.36,16.36,0,0,0-4.71-.32,7.75,7.75,0,0,0-3.74,1.28c-.12.1-.26.17-.38.27l-.36.32a6.51,6.51,0,0,0-.67.71,3.79,3.79,0,0,0-.34.44l-.35.5a7.49,7.49,0,0,0-.67,1,36,36,0,0,0-3.88,9.64,99.6,99.6,0,0,0-2.7,21.9,214.25,214.25,0,0,0,.67,22.49A326.85,326.85,0,0,0,116,121.16l.22,1-.37.94c-3.8,9.65-6.94,19.64-9.81,29.7q-2.13,7.56-4,15.18c-1.24,5.07-2.43,10.19-3.38,15.25-.24,1.27-.44,2.51-.6,3.69s-.27,2.55-.38,3.83c-.22,2.55-.35,5.11-.39,7.66a88.56,88.56,0,0,0,1.07,15.2,67.29,67.29,0,0,0,11,27.86,77,77,0,0,0,21.93,20.74,133.91,133.91,0,0,0,27.84,13.22,271,271,0,0,0,30.09,8.38l3.82.9,3.84.86,7.69,1.77c5.13,1.2,10.28,2.42,15.38,3.91a1.52,1.52,0,0,1-.58,3h0c-10.48-1.1-21-2.48-31.4-4.55A225.51,225.51,0,0,1,157,281.35a139.39,139.39,0,0,1-29.19-13.83,83.3,83.3,0,0,1-23.76-22.42A73.69,73.69,0,0,1,92,214.64a95,95,0,0,1-1.18-16.31c0-2.71.17-5.43.39-8.12.12-1.35.25-2.7.41-4s.4-2.79.65-4.11c1-5.31,2.17-10.47,3.43-15.63s2.6-10.29,4-15.4c2.89-10.22,6.06-20.37,10-30.35l-.15,1.93A332.63,332.63,0,0,1,102.47,77a218.71,218.71,0,0,1-.73-23.21,106.85,106.85,0,0,1,2.87-23.42,42.68,42.68,0,0,1,4.65-11.49,14.66,14.66,0,0,1,.9-1.37l.47-.67a7.27,7.27,0,0,1,.54-.68,11.9,11.9,0,0,1,1.29-1.37l.71-.64c.25-.2.52-.37.78-.56a14.68,14.68,0,0,1,6.94-2.47,22.87,22.87,0,0,1,6.67.4,40.14,40.14,0,0,1,6,1.69,76.42,76.42,0,0,1,10.86,5.06,176.08,176.08,0,0,1,19.45,12.88c6.19,4.64,12.15,9.51,18,14.49l-3.66-.54a122,122,0,0,1,15.93-5.5C199.55,38.1,205,37,210.48,36.09S221.44,34.5,227,34s11-.79,16.62-.82,11.1.35,16.62.83,11,1.16,16.48,2.07,10.92,2,16.31,3.49a120.5,120.5,0,0,1,15.93,5.5l-3.64.54c5.85-5,11.81-9.85,18-14.49a176.08,176.08,0,0,1,19.45-12.88,75.3,75.3,0,0,1,10.86-5.05,39.81,39.81,0,0,1,6-1.69,23.08,23.08,0,0,1,6.65-.4,14.65,14.65,0,0,1,6.93,2.47c.26.18.53.36.77.56l.71.63A11.09,11.09,0,0,1,376,16.15a5.77,5.77,0,0,1,.53.68l.48.67a14.66,14.66,0,0,1,.9,1.37,42.92,42.92,0,0,1,4.64,11.48,106.07,106.07,0,0,1,2.86,23.41A218.71,218.71,0,0,1,384.63,77a332.72,332.72,0,0,1-7.08,45.63l-.15-1.9c3.88,10,7.07,20.12,10,30.34,1.45,5.11,2.78,10.24,4,15.4s2.44,10.33,3.44,15.62l.35,2,.29,2.1.34,4.05.33,4,.06,4.07c0,1.36,0,2.72,0,4.08l-.27,4.08-.13,2-.07,1c0,.34-.09.67-.14,1l-.59,4.06-.3,2-.46,2-.94,4c-.33,1.34-.82,2.63-1.23,3.94l-.64,2-.33,1-.4,1-1.62,3.8-.41,1c-.15.31-.32.61-.48.91l-1,1.83-1,1.82-.49.91c-.18.29-.37.58-.56.87L383,245a76.15,76.15,0,0,1-10.81,12.4l-1.5,1.41c-.5.46-1,.87-1.56,1.31l-3.17,2.6-3.31,2.39c-.56.4-1.11.81-1.67,1.19l-1.72,1.09c-1.15.72-2.28,1.47-3.44,2.16l-3.54,2c-1.17.69-2.39,1.28-3.6,1.88s-2.4,1.24-3.63,1.79c-2.46,1.09-4.9,2.24-7.41,3.2s-5,1.93-7.54,2.84C325,283,319.9,284.64,314.73,286c-2.58.7-5.17,1.29-7.76,1.92s-5.2,1.13-7.81,1.63c-10.43,2-20.92,3.45-31.36,4.72h0a1.52,1.52,0,0,1-.58-3Z"/><path class="i" d="M269.5,211.24s0,15.79-14.13,15c-10-.58-12.09-8.82-12.24-9.49-.16.67-2.24,8.91-12.25,9.49-14.15.83-14.14-15-14.14-15L243,190.77h.24Z"/><path class="f" d="M269.36,211.34s-4.61,12-15.34,9.22c-12.23-3.18-10.73-17.75-10.73-17.75h-.45s1.44,14.57-10.79,17.71c-10.75,2.76-15.31-9.28-15.31-9.28s-3-27,26.26-27S269.36,211.34,269.36,211.34Z"/><path class="i" d="M268,214c-2.07,3.37-6.57,8.47-14,6.54-12.23-3.18-10.73-17.75-10.73-17.75h-.45s1.44,14.58-10.79,17.71c-7.4,1.9-11.87-3.22-13.94-6.59a19.7,19.7,0,0,0,6.76-.6c20.2-5.18,17.82-25,17.82-25h.75s-2.47,19.77,17.71,25A19.64,19.64,0,0,0,268,214Z"/><path class="b" d="M218.39,210.61c.37.59.83,1.33,1.31,1.95a20.33,20.33,0,0,0,1.49,1.82,13.26,13.26,0,0,0,3.43,2.75,9.26,9.26,0,0,0,3.82,1.1,10.14,10.14,0,0,0,2-.18c.34-.08.68-.1,1-.2l1-.34a11,11,0,0,0,6.27-5.46,17.64,17.64,0,0,0,1.59-4.34,23.06,23.06,0,0,0,.45-2.37c.11-.78.21-1.65.24-2.36v-.13a1.77,1.77,0,0,1,3.52-.21,17.56,17.56,0,0,1,.26,2.91,21.35,21.35,0,0,1-.12,2.88,18.85,18.85,0,0,1-1.48,5.74,15.12,15.12,0,0,1-8.88,8.42l-1.48.5a12.88,12.88,0,0,1-1.55.31,15,15,0,0,1-3.23.19A13.31,13.31,0,0,1,222,221.5a15.83,15.83,0,0,1-4.35-4.32,21,21,0,0,1-1.48-2.54,17.13,17.13,0,0,1-1.06-2.77,1.76,1.76,0,0,1,1.2-2.2,1.78,1.78,0,0,1,2,.77Z"/><path class="b" d="M271,212a17.16,17.16,0,0,1-1.08,2.77,19.63,19.63,0,0,1-1.48,2.53,15.85,15.85,0,0,1-4.37,4.3,13.25,13.25,0,0,1-6.16,2.07,17,17,0,0,1-4.78-.52l-1.47-.51a15.12,15.12,0,0,1-8.86-8.46,19.32,19.32,0,0,1-1.45-5.73,21.46,21.46,0,0,1-.11-2.88,18.77,18.77,0,0,1,.27-2.92,1.77,1.77,0,0,1,3.52.22V203a22.78,22.78,0,0,0,.22,2.36,23,23,0,0,0,.44,2.37,17.45,17.45,0,0,0,1.58,4.35,11,11,0,0,0,6.24,5.48l1,.34c.35.1.69.13,1,.21a10,10,0,0,0,2,.18,9.08,9.08,0,0,0,3.81-1.08,13.25,13.25,0,0,0,3.45-2.73,20.43,20.43,0,0,0,1.5-1.82c.47-.62.94-1.35,1.31-1.94l.11-.17A1.77,1.77,0,0,1,271,212Z"/><path class="b" d="M257.81,195.2c0,3.45-4.51,6.48-8.65,8.55a14.83,14.83,0,0,1-13.48,0c-4.12-2.08-8.62-5.13-8.61-8.58C227.09,184.74,257.83,184.8,257.81,195.2Z"/><g class="e"><path class="f" d="M248.54,193.14c0,1-1.79,1.87-3.43,2.47a7.84,7.84,0,0,1-5.34,0c-1.64-.6-3.42-1.48-3.42-2.47C236.36,190.12,248.54,190.15,248.54,193.14Z"/></g><path class="b" d="M112.68,203.83c-.59-.34-1.27-.7-1.92-1s-1.32-.68-2-1-1.34-.65-2-.94-1.35-.62-2-.9c-2.76-1.12-5.55-2.21-8.4-3.11a114.24,114.24,0,0,0-17.42-4.21c-1.47-.28-3-.37-4.45-.59l-2.23-.27c-.74-.09-1.49-.11-2.24-.17-1.49-.09-3-.18-4.48-.3l-4.5-.05c-3-.13-6,.22-9,.3l-1.13.05-1.12.12-2.25.25-4.51.47h-.1a1.57,1.57,0,0,1-1.71-1.39,1.55,1.55,0,0,1,1.27-1.69l4.58-.84,2.29-.4,1.15-.2,1.16-.13c1.55-.17,3.1-.32,4.65-.47.77-.06,1.55-.17,2.33-.19l2.33-.07c1.56,0,3.12-.1,4.68-.12l4.68.18c.78,0,1.56.05,2.34.12l2.33.24c1.55.18,3.12.29,4.66.56l4.62.79c1.54.29,3.06.68,4.58,1s3,.83,4.53,1.25,3,1,4.45,1.49a66.47,66.47,0,0,1,16.72,8.66,1.54,1.54,0,0,1,.34,2.17,1.57,1.57,0,0,1-2,.43Z"/><path class="b" d="M116.64,227.16c-2.55-.3-5.24-.51-7.87-.62s-5.29-.15-7.93-.09A93.2,93.2,0,0,0,85.17,228a67.63,67.63,0,0,0-7.61,1.88c-1.26.36-2.48.83-3.71,1.25s-2.44.93-3.61,1.5A56.42,56.42,0,0,0,57,240.88l0,0a1.56,1.56,0,0,1-2.09-2.31,51.47,51.47,0,0,1,13.57-9.76,57,57,0,0,1,7.75-3.21,63,63,0,0,1,8.09-2.15,75.72,75.72,0,0,1,16.57-1.5,69.73,69.73,0,0,1,16.46,2.15,1.56,1.56,0,0,1-.58,3Z"/><path class="b" d="M372.67,201.28a66.53,66.53,0,0,1,16.73-8.66c1.47-.53,2.94-1.07,4.45-1.49s3-.92,4.53-1.25,3-.74,4.57-1l4.63-.79c1.54-.27,3.1-.38,4.66-.56l2.33-.24c.77-.07,1.56-.08,2.34-.12l4.68-.18c1.56,0,3.12.08,4.67.12l2.34.07c.78,0,1.55.13,2.33.19,1.55.15,3.1.3,4.64.47l1.16.13,1.15.2,2.3.4,4.58.84a1.55,1.55,0,0,1,1.25,1.81,1.57,1.57,0,0,1-1.69,1.27h-.11L439.7,192l-2.24-.25-1.13-.12-1.13-.05c-3-.08-6-.43-9-.3l-4.5.05c-1.5.12-3,.21-4.49.3-.74.06-1.49.08-2.24.17l-2.23.27c-1.48.22-3,.31-4.45.59a114.12,114.12,0,0,0-17.41,4.21c-2.86.9-5.64,2-8.41,3.11-.69.28-1.36.62-2,.9s-1.37.61-2,.94-1.35.64-2,1-1.33.69-1.91,1l-.1,0a1.56,1.56,0,0,1-1.7-2.6Z"/><path class="b" d="M369.84,224.12A69.82,69.82,0,0,1,386.31,222a75.78,75.78,0,0,1,16.57,1.5,63.9,63.9,0,0,1,8.09,2.15,58,58,0,0,1,7.75,3.21,51.79,51.79,0,0,1,13.57,9.76,1.56,1.56,0,0,1-2.09,2.31l0,0a56.62,56.62,0,0,0-13.26-8.24c-1.18-.57-2.41-1-3.61-1.5s-2.45-.89-3.71-1.25A68.17,68.17,0,0,0,402,228a93.21,93.21,0,0,0-15.68-1.56c-2.63-.06-5.28,0-7.92.09s-5.32.32-7.87.62h-.09a1.56,1.56,0,0,1-.58-3Z"/><g class="d"><path class="b" d="M101.4,300.15c-1.9,23-17.77,42.53-24.92,50.25C83.1,336.8,89,323.22,90.07,310.56a38.21,38.21,0,0,0-2.26-17.34,19.2,19.2,0,0,0-5.26-7.41,20.13,20.13,0,0,0-13.92-5.12c-9.76.41-18.61,9.24-15,31.24,5,30.91-28.62,40.57-41,14.07-.55-1.18-1-2.42-1.5-3.71,6.22,4.66,21.75,12.67,30.36,3.1C53.59,311.93,37.09,289.46,53,272.9,65.13,260.29,103.87,270.29,101.4,300.15Z"/></g><path class="j" d="M77.06,269.8c-.3.32-4.23-.71-4.12-.28a26.25,26.25,0,0,1,.25,11.56h-.07a8.55,8.55,0,0,0-.88-.17c-.26-.05-.51-.08-.77-.11l-.62-.06-.58,0c-.55,0-1.09,0-1.64,0-9.76.42-18.61,9.24-15,31.24,5,30.91-28.62,40.57-41,14.07-.55-1.18-1-2.42-1.5-3.71,6.22,4.66,21.75,12.67,30.36,3.1C53.59,311.93,37.09,289.46,53,272.9c5.06-5.26,14.75-6.59,24.15-4.18C77.27,269.21,77.27,269.59,77.06,269.8Z"/><path class="f" d="M73.19,281.08a18.08,18.08,0,0,0-4.56-.39c-9.76.42-18.61,9.24-15,31.24,5,30.91-28.62,40.57-41,14.07-.55-1.18-1-2.42-1.5-3.71l-.45-1.37C3,296.24,12.3,253.5,50.45,244.55q2.63-.63,5.44-1a66.61,66.61,0,0,1,7.59-.64C66,244.46,72.29,250.59,74,257c.21.79-3.81-.76-3.49.09,1.06,2.84,7.82,11.32,6.51,12.7-.3.32-4.23-.7-4.13-.28A26.2,26.2,0,0,1,73.19,281.08Z"/><g class="d"><path class="b" d="M77.06,269.8c-.3.32-4.23-.71-4.12-.28a26.25,26.25,0,0,1,.25,11.56h-.07c-.29-.07-.58-.12-.88-.17s-.51-.08-.77-.11l-.62-.06-.58,0c-.55,0-1.09,0-1.64,0-9.76.42-18.61,9.24-15,31.24,5,30.91-28.62,40.57-41,14.07-.55-1.18-1-2.42-1.5-3.71,6.22,4.66,21.75,12.67,30.36,3.1C53.59,311.93,37.09,289.46,53,272.9c5.06-5.26,14.75-6.59,24.15-4.18C77.27,269.21,77.27,269.59,77.06,269.8Z"/></g><path class="b" d="M119.09,442.1c-15.27,0-29.57-5.25-40.6-15.59-17.85-16.74-22-42.57-10.57-65.81.72-1.47,1.45-2.93,2.18-4.4,10.72-21.66,21.81-44.05,14.8-61.94-2.88-7.37-11.75-12.1-19-10.12-8.19,2.24-11.65,12.4-9.25,27.2,2.89,17.82-6.11,29-16.32,32.09-10,3.08-23.35-.74-30.56-16.22-7.56-16.23-6-40.05,3.67-57.94,6.18-11.37,18.49-25.62,42-28.93,20.79-2.92,40,3.57,52.8,17.82,13.79,15.39,18.25,37.73,12.23,61.27-1.54,6.05-4.42,13.57-7.46,21.53-7.17,18.77-16.09,42.13-10.25,54.26,1.8,3.74,6.84,6.84,12.84,7.9,9.71,1.72,19.94-1.83,28-9.74A3.12,3.12,0,1,1,148,398c-9.57,9.32-21.79,13.48-33.5,11.41-8-1.42-14.69-5.76-17.38-11.34-7-14.54,2.06-38.26,10-59.18,3-7.79,5.79-15.15,7.24-20.85,5.5-21.5,1.55-41.75-10.83-55.57C92.26,249.75,75,244,56.33,246.62c-20.94,2.94-31.89,15.61-37.39,25.73-9.85,18.13-9.21,40-3.49,52.33,5.62,12.07,15.64,15.17,23.07,12.89,7.06-2.17,14.44-10.05,12-25.14-4.39-27.05,9.43-33,13.77-34.21,10.29-2.81,22.39,3.54,26.44,13.87,8,20.45-3.71,44.1-15,67-.72,1.47-1.45,2.93-2.17,4.39-10.35,21-6.81,43.46,9.24,58.51,18.1,17,46.28,18.51,71.78,3.9a3.12,3.12,0,1,1,3.1,5.41C145,438.51,131.71,442.1,119.09,442.1Z"/><path class="c" d="M401.12,423.14a45.65,45.65,0,0,1-11.86,31.07,50.33,50.33,0,0,1-37.51,16.41H135.4a50.33,50.33,0,0,1-37.51-16.41A45.55,45.55,0,0,1,86,423.14c0-.94,0-1.85,0-2.73,1.09-26.8,20.34-28.64,32.25-20.72.35.22.69.47,1,.71l1-1.55c7.86-13,17.86-14.94,27.12-12.51,14.44,3.78,27.09,18.25,27.09,18.25H312.6s11.66-13.34,25.37-17.75c9.73-3.13,20.48-1.78,28.84,12l1,1.56q1-.72,2-1.35c12-7.19,30.34-4.7,31.26,21.64C401.11,421.48,401.13,422.3,401.12,423.14Z"/><g class="e"><path class="f" d="M126,401c.82-4,8.44-11.16,15.23-10.34,5.66.69,2.82,4.16-1.51,5.36C133.09,397.82,125.15,405,126,401Z"/></g><g class="e"><path class="f" d="M361.07,401c-.82-4-8.44-11.16-15.23-10.34-5.66.69-2.82,4.16,1.51,5.36C354,397.82,361.9,405,361.07,401Z"/></g><g class="d"><path class="b" d="M401.12,423.14a45.65,45.65,0,0,1-11.86,31.07,50.33,50.33,0,0,1-37.51,16.41H135.4a50.33,50.33,0,0,1-37.51-16.41A45.55,45.55,0,0,1,86,423.14c0-.94,0-1.85,0-2.73l42.55-6.63s17.57,25.33,19.57,14.25c.55-3.07-6.41-19.46-.73-41.69a76.1,76.1,0,0,1,3.75-11c6.94-16.25,91.44,0,91.44,0s84.5-16.25,91.44,0A74.5,74.5,0,0,1,338,386.84c5.45,22-1.39,38.14-.85,41.19,2,11.08,19.56-14.25,19.56-14.25l44.4,6.92C401.11,421.48,401.13,422.3,401.12,423.14Z"/></g><path class="f" d="M401.12,423.14a45.65,45.65,0,0,1-11.86,31.07,50.33,50.33,0,0,1-37.51,16.41H135.4a50.33,50.33,0,0,1-37.51-16.41A45.55,45.55,0,0,1,86,423.14c-.15-29.4,20-31.63,32.29-23.45,12.85,11.67,12.79,25.45,19.62,31.88,19.43,18.31,44.39,5.78,47.47-27a80.6,80.6,0,0,0-.2-16.07c-4.77-44.76,58.5-23.76,58.5-23.76s63.28-21,58.5,23.76a81.36,81.36,0,0,0-.2,16.07c3.08,32.76,28,45.29,47.47,27,7-6.55,6.77-20.71,20.34-32.51C382.18,391.65,401.27,394.51,401.12,423.14Z"/><path class="f" d="M401.12,423.14a45.6,45.6,0,0,1-11.86,31.07,50.33,50.33,0,0,1-37.51,16.41H135.4a50.33,50.33,0,0,1-37.51-16.41,47.82,47.82,0,0,1-5.48-7.42A45.86,45.86,0,0,1,86,423.14c-.15-29.4,20-31.63,32.29-23.45,12.85,11.67,12.79,25.45,19.62,31.88l1,.92h0c16.78,14.75,37.27,7.05,44.27-16.43a58.92,58.92,0,0,0,2.18-11.48,80.6,80.6,0,0,0-.2-16.07c-4.77-44.76,58.5-23.76,58.5-23.76s63.28-21,58.5,23.76a81.36,81.36,0,0,0-.2,16.07,59.64,59.64,0,0,0,2.18,11.49c6.61,22.09,25.12,30.21,41.27,18.8h0a35.27,35.27,0,0,0,4-3.3c7-6.55,6.77-20.71,20.34-32.51C382.18,391.65,401.27,394.51,401.12,423.14Z"/><g class="d"><path class="b" d="M396.25,444a46.84,46.84,0,0,1-7,10.17,50.33,50.33,0,0,1-37.51,16.41H135.4a50.33,50.33,0,0,1-37.51-16.41,47.82,47.82,0,0,1-5.48-7.42c11.14,9.12,28.38,19.39,43.93,12.52,14-6.19,2.39-27,2.39-27l.21.14h0c16.78,14.75,37.27,7.05,44.27-16.43,26.15-.18,59.49,4.54,59.49,4.54s35.06-5,61.47-4.53c6.61,22.09,25.12,30.21,41.27,18.8-2.57,5.72-7.39,19.58,3.63,24.43C366.23,466.89,385.44,453.63,396.25,444Z"/></g><path class="b" d="M348.18,430.35a18.73,18.73,0,0,0,4.23-7.11c1.06-2.77,2-5.7,3.13-8.62a54.22,54.22,0,0,1,4.11-8.66,42.58,42.58,0,0,1,6-7.83,3.12,3.12,0,0,1,4.48,4.35l-.18.17,0,0a37.14,37.14,0,0,0-5.68,6.24,49.07,49.07,0,0,0-4.4,7.55c-1.3,2.68-2.48,5.49-3.85,8.32a34.92,34.92,0,0,1-2.39,4.22l-.72,1c-.27.33-.56.65-.84,1l-.42.48c-.15.16-.33.3-.49.44l-1,.86a1.56,1.56,0,0,1-2.2-.16,1.55,1.55,0,0,1,.12-2.15Z"/><path class="b" d="M137,432.79l-1-.86c-.16-.14-.34-.28-.49-.44l-.42-.48c-.28-.32-.57-.64-.84-1l-.72-1a34.92,34.92,0,0,1-2.39-4.22c-1.37-2.83-2.54-5.64-3.85-8.32a49.07,49.07,0,0,0-4.4-7.55,37.14,37.14,0,0,0-5.68-6.24l0,0a3.12,3.12,0,0,1,4.1-4.71l.19.18a42.58,42.58,0,0,1,6,7.83,54.22,54.22,0,0,1,4.11,8.66c1.13,2.92,2.07,5.85,3.13,8.62a18.86,18.86,0,0,0,4.23,7.11l.13.13a1.55,1.55,0,0,1-2.08,2.31Z"/><path class="b" d="M351.75,473.75H135.4a53.47,53.47,0,0,1-39.83-17.46,48.55,48.55,0,0,1-12.66-33.14c-.1-18.07,7-25.48,13-28.51,6.67-3.38,15.2-2.77,22.51,1.43,5.37-8.34,12.2-12.95,20.28-13.65,16.73-1.46,33.11,14.65,37.25,19.06H311.22c4.14-4.41,20.52-20.52,37.24-19.06,8.06.7,14.88,5.29,20.28,13.64,7.31-4.19,15.85-4.8,22.51-1.42,6,3,13.08,10.43,13,28.51a48.6,48.6,0,0,1-12.66,33.14A53.47,53.47,0,0,1,351.75,473.75Zm-246.44-75a14.7,14.7,0,0,0-6.6,1.48c-6.32,3.21-9.62,11.13-9.56,22.92a42.48,42.48,0,0,0,11.06,29,47.22,47.22,0,0,0,35.19,15.39H351.75a47.22,47.22,0,0,0,35.18-15.38,42.48,42.48,0,0,0,11.07-29c.06-11.79-3.25-19.72-9.57-22.92-5.37-2.72-12.92-1.63-18.79,2.72l-2.71,2-2.77-4.42c-4.44-7.34-9.9-11.33-16.23-11.88-15.78-1.39-32.82,17.82-33,18l-.93,1.06H173.14l-.94-1.06c-.17-.2-17.2-19.41-33-18-6.33.55-11.78,4.54-16.2,11.84l-2.83,4.43-2.69-2A20.82,20.82,0,0,0,105.31,398.72Zm295.81,24.41h0Z"/><path class="c" d="M164.12,360.32c-49.76-.95-62.64-33.89-64-61.37a109.25,109.25,0,0,1,2-26.68l58.13-9.12a33.55,33.55,0,0,0,2.48,5.7c10.62,19.55,39,30.7,39,30.7S232.59,361.64,164.12,360.32Z"/><g class="d"><path class="b" d="M164.12,360.32c-41.8-.79-57.58-24.17-62.35-47.92,9.25,13.72,25.49,24,52.94,24.5,40.77.79,46.33-20.9,44.15-38.59,1.81.82,2.88,1.24,2.88,1.24S232.59,361.64,164.12,360.32Z"/></g><path class="f" d="M162.78,268.85C157.72,279.3,149,287.62,138.61,293c-11.82,6.17-25.7,8.54-38.47,5.94a109.25,109.25,0,0,1,2-26.68l58.13-9.12a31.93,31.93,0,0,0,1.6,4C162.18,267.71,162.47,268.29,162.78,268.85Z"/><g class="d"><path class="b" d="M162.78,268.85C157.72,279.3,149,287.62,138.61,293c0,0,0,0-.07,0-6.95,3.1-18.13,3-21.24-3.5-2.42-5.09,29.86-17.19,44.6-22.4C162.18,267.71,162.47,268.29,162.78,268.85Z"/></g><path class="b" d="M166.22,363.46c-.71,0-1.43,0-2.16,0-23.6-.45-41.38-7.95-52.83-22.29-20-25.07-13.61-62.31-12.12-69.51a3.12,3.12,0,1,1,6.11,1.26c-1.39,6.73-7.41,41.46,10.88,64.36,10.25,12.82,26.42,19.53,48.08,19.95,18.89.37,31.44-4.18,37.35-13.5,8.86-14,.75-35.18-1.84-41.16-7.86-.69-35.6-5.5-42.45-38.77a3.12,3.12,0,0,1,6.12-1.25c6.89,33.47,36.91,33.9,38.36,33.9h1.95l.87,1.74c.6,1.2,14.46,29.62,2.26,48.88C199.89,358,186.24,363.46,166.22,363.46Z"/><path class="f" d="M168.39,269.93c-6.3,4.74-15.74,5-22.48-6.78,1.74,6.39.86,26.35-25.73,26.45q-1.4,0-2.88-.06L100,292.11c-1.2-47.21,31.1-64.29,58.29-50,4.63,2.44,9.07,8,11.36,13.71S172.13,267.11,168.39,269.93Z"/><g class="d"><path class="b" d="M168.39,269.93c-6.3,4.74-15.74,5-22.48-6.78,1.74,6.39.86,26.35-25.73,26.45,4.56-2,13.22-6.56,18.18-14.8,3.73-6.2,4.15-12.65,5.24-13.3,2.39-1.44,23.23,7.36,26.08-5.65C171.94,261.44,172.13,267.11,168.39,269.93Z"/></g><path class="b" d="M96.91,292.2a89.1,89.1,0,0,1,1.71-20.11A58.15,58.15,0,0,1,106.14,253a41.31,41.31,0,0,1,15.11-14.38,38.11,38.11,0,0,1,20.49-4.44,43.39,43.39,0,0,1,10.31,2c.82.28,1.66.54,2.47.86l2.42,1,2.34,1.14c.37.17.8.41,1.23.66s.81.51,1.22.77a29.83,29.83,0,0,1,7.5,7.85,32.52,32.52,0,0,1,4.51,9.77,20.54,20.54,0,0,1,.67,5.74,11.62,11.62,0,0,1-2,6.23,9.91,9.91,0,0,1-1.13,1.37c-.21.21-.44.39-.67.59l-.33.28-.3.21-1.2.82-1.28.71a17.49,17.49,0,0,1-5.64,1.8A16,16,0,0,1,150.46,273a25.71,25.71,0,0,1-7.26-8.3l5.72-2.38h0a18.06,18.06,0,0,1,.69,3.39,21.44,21.44,0,0,1,.14,3.3,24.57,24.57,0,0,1-1,6.51,22.61,22.61,0,0,1-2.86,6.07,21.88,21.88,0,0,1-4.6,4.95,24.91,24.91,0,0,1-5.73,3.3,27.8,27.8,0,0,1-6.15,1.67,33.84,33.84,0,0,1-12.15-.43,1.58,1.58,0,0,1,.12-3.11h0a79,79,0,0,0,10.81-2,23.4,23.4,0,0,0,8.92-4.49,16.69,16.69,0,0,0,5.11-7.9,20.61,20.61,0,0,0,.9-4.83,19.41,19.41,0,0,0-.21-4.75h0l0-.13a3.12,3.12,0,0,1,5.74-2.25,19.43,19.43,0,0,0,5.43,6.3,13.43,13.43,0,0,0,1.65,1,12.45,12.45,0,0,0,1.74.62,8.84,8.84,0,0,0,3.62.24,11.48,11.48,0,0,0,3.6-1.16l.85-.47.82-.56.2-.14.12-.11.25-.22a4,4,0,0,0,.42-.5,5.57,5.57,0,0,0,.86-3,14,14,0,0,0-.47-3.91,26.59,26.59,0,0,0-3.65-7.84,24,24,0,0,0-5.86-6.2c-.28-.17-.56-.38-.84-.53a7.74,7.74,0,0,0-.92-.48l-2-1-2.1-.86c-.7-.27-1.42-.49-2.13-.74a36.46,36.46,0,0,0-8.8-1.66,31.8,31.8,0,0,0-17.14,3.7,35.07,35.07,0,0,0-12.81,12.23,52,52,0,0,0-6.69,17A83,83,0,0,0,103.15,292h0a3.12,3.12,0,0,1-6.24.15Z"/><path class="c" d="M330.52,433c9.6-24.29,2.16-66.91-4.35-112.41h-167c-6.5,45.5-13.95,88.12-4.35,112.41"/><g class="d"><path class="b" d="M329.43,433c9.6-24.29,2.15-66.91-4.35-112.41H158c-6.51,45.5-13.95,88.12-4.35,112.41"/></g><path class="b" d="M329.07,432.45c2.33-8.89,3-18.07,3-27.34l-.14-7c-.12-2.32-.19-4.65-.35-7s-.33-4.66-.54-7l-.67-7c-1-9.33-2.24-18.66-3.51-28l-1.91-14c-.63-4.68-1.27-9.37-1.83-14.07h0l3.09,2.68h-167l3.09-2.68h0c-.57,4.7-1.21,9.39-1.84,14.07l-1.91,14c-1.27,9.35-2.55,18.68-3.53,28a279.15,279.15,0,0,0-1.74,27.93c0,9.27.59,18.49,3,27.34l0,.12a1.56,1.56,0,0,1-2.94,1c-.48-1.12-1-2.24-1.44-3.38-.22-.57-.5-1.13-.68-1.71l-.53-1.75c-.35-1.17-.74-2.34-1-3.53l-.76-3.57-.36-1.8-.24-1.8-.49-3.61c-.23-2.4-.38-4.81-.54-7.22s-.12-4.82-.12-7.22.09-4.8.2-7.19.23-4.78.39-7.16.35-4.76.57-7.14c.85-9.49,2.08-18.91,3.41-28.29q1-7.05,2.11-14.05c.73-4.67,1.44-9.34,2.22-14h0l.39-2.68H328.88l.38,2.68h0c.78,4.66,1.5,9.33,2.23,14s1.46,9.35,2.12,14c1.33,9.39,2.57,18.81,3.43,28.3l.58,7.14c.16,2.38.26,4.77.4,7.16s.12,4.79.19,7.19,0,4.81-.09,7.22-.27,4.82-.53,7.23l-.47,3.61-.25,1.81-.37,1.79c-.24,1.2-.5,2.39-.76,3.58s-.69,2.36-1.05,3.52l-.54,1.75c-.18.58-.47,1.14-.7,1.71-.48,1.14-1,2.26-1.48,3.37a1.56,1.56,0,0,1-2.93-1Z"/><path class="c" d="M326.85,294.42s73.23,89.42-4.58,101.76Z"/><path class="b" d="M319,399.86l5.11-113.72,5.16,6.31C331,294.54,371,344,358.93,375.68c-4.8,12.6-17,20.53-36.17,23.58Zm10.58-96.64-4,89.19c14.63-3,23.88-9.38,27.52-18.94C361.47,351.49,339.9,317.6,329.57,303.22Z"/><path class="k" d="M271.5,470.63H213.91a50.16,50.16,0,0,1-49.42-41.55L146.71,326.74l-1.62-15.89A28,28,0,0,1,173,280H312.33a28,28,0,0,1,27.88,31l-1.9,17.94L320.93,429.06A50.16,50.16,0,0,1,271.5,470.63Z"/><g class="l"><path class="f" d="M340.21,311l-.07.63a28,28,0,0,0-27.82-24.45H299.37a8.58,8.58,0,0,0-8.58,8.57v15.88H265.28V295.71a8.58,8.58,0,0,0-8.58-8.57H204.53a8.86,8.86,0,0,0-8.86,8.85v15.6H181.83V296a8.85,8.85,0,0,0-8.85-8.85h0a28,28,0,0,0-27.81,24.45l-.08-.74A28,28,0,0,1,173,280H312.32A28,28,0,0,1,340.21,311Z"/></g><path class="b" d="M271.5,473.75H213.91a53.16,53.16,0,0,1-52.49-44.14L143.63,327.27l0-.21L142,311.17a31.16,31.16,0,0,1,31-34.3H312.33a31.14,31.14,0,0,1,31,34.42l-1.9,17.94,0,.2L324,429.6A53.17,53.17,0,0,1,271.5,473.75ZM149.8,326.32l17.77,102.23a46.94,46.94,0,0,0,46.34,39H271.5a46.94,46.94,0,0,0,46.35-39l17.36-100.06,1.9-17.84a24.91,24.91,0,0,0-24.78-27.52H173a24.91,24.91,0,0,0-24.79,27.42Z"/><path class="k" d="M338.31,328.9l-1.42,8.18L334,353.63l-7.15,41.17L324,411.51l-5.79,33.37a31.06,31.06,0,0,1-30.62,25.74H197.87a31.07,31.07,0,0,1-30.62-25.74l-1.63-9.41-2.21-12.73-1.15-6.64L158.6,395l-1.1-6.31-10.38-59.8a22.56,22.56,0,0,1,22.16-26.83H316.15a22.55,22.55,0,0,1,20.76,13.69,22.14,22.14,0,0,1,1.51,5.17A22.52,22.52,0,0,1,338.31,328.9Z"/><g class="d"><path class="b" d="M334,353.63l-7.15,41.17L324,411.51l-5.79,33.37a31.06,31.06,0,0,1-30.62,25.74H197.87a31.07,31.07,0,0,1-30.62-25.74L158.6,395c11.06,23.36,34.51,49.42,84.05,49.45h.07c37.53,0,60.09-15,73.62-32.39-16.27-.37-26.23-11.7-21.79-43.73C297.11,349.89,325.56,352.47,334,353.63Z"/></g><g class="l"><path class="f" d="M338.31,328.9l-1.42,8.18L165.62,435.47l-2.21-12.73,175-101.81A22.52,22.52,0,0,1,338.31,328.9Z"/></g><g class="l"><path class="f" d="M336.91,315.76,162.26,416.1,158.6,395l-1.1-6.31,148.91-86.63h9.74A22.55,22.55,0,0,1,336.91,315.76Z"/></g><path class="b" d="M287.56,473.75H197.87a34.13,34.13,0,0,1-33.7-28.34l-20.12-116A25.67,25.67,0,0,1,169.28,299H316.15a25.68,25.68,0,0,1,25.22,30.54L321.26,445.41A34.13,34.13,0,0,1,287.56,473.75ZM169.28,305.18a19.44,19.44,0,0,0-19.09,23.13l20.13,116a27.9,27.9,0,0,0,27.55,23.17h89.69a27.9,27.9,0,0,0,27.55-23.17l20.12-116a19.44,19.44,0,0,0-19.08-23.19Z"/><path class="f" d="M341,382.55c-3.82,7.33-10.17,12.63-18.69,13.63-19.69,2.29-30.85-8.86-23.7-36.73,2-7.7,7.45-12.58,13.65-15.66,11-5.5,24.24-5.37,24.24-5.37C346.67,351.29,347.57,369.93,341,382.55Z"/><g class="d"><path class="b" d="M341,382.55c-3.82,7.33-10.17,12.63-18.69,13.63-19.69,2.29-30.85-8.86-23.7-36.73,2-7.7,7.45-12.58,13.65-15.66-4.05,9.59-8,24.27-1.62,36.38C316.31,391,331.44,390.29,341,382.55Z"/></g><path class="b" d="M336.44,341.53c-9,.33-18.58,2.29-25.87,7a20.36,20.36,0,0,0-8,9.35c-.18.47-.36,1-.51,1.45s-.28,1-.42,1.56c-.27,1.13-.54,2.26-.77,3.39a57,57,0,0,0-1,6.78c-.38,4.49-.15,9,1.32,12.83a13.54,13.54,0,0,0,8.09,8.1,29.4,29.4,0,0,0,12.83,1.32c1-.11,2.19-.34,3.32-.56s2.32-.46,3.47-.72,2.3-.53,3.43-.82l1.65-.45c.53-.15,1.06-.33,1.39-.46l.2-.08a2.49,2.49,0,0,1,2,4.54,17.62,17.62,0,0,1-2,.85c-.61.23-1.21.43-1.81.63-1.19.38-2.38.73-3.57,1.07s-2.38.65-3.59.94-2.39.56-3.8.78a39,39,0,0,1-7.81.45,27.2,27.2,0,0,1-8-1.56,20.06,20.06,0,0,1-7.22-4.53,20.64,20.64,0,0,1-4.65-7.14,35.62,35.62,0,0,1-1.84-15.73,64.73,64.73,0,0,1,1.08-7.55c.24-1.24.52-2.46.83-3.68.13-.58.32-1.27.52-1.93s.45-1.32.71-2a24.81,24.81,0,0,1,4.36-7.06A30,30,0,0,1,307,343a45.18,45.18,0,0,1,14.37-5.9,68.75,68.75,0,0,1,7.49-1.34c1.26-.15,2.51-.27,3.78-.35s2.49-.14,3.88-.13a3.12,3.12,0,0,1,.1,6.23Z"/><path class="b" d="M315.76,360.36a32.39,32.39,0,0,0-5.43,1.41,25.47,25.47,0,0,0-5,2.34,14.93,14.93,0,0,0-3.85,3.33,11.26,11.26,0,0,0-1.23,2,10.3,10.3,0,0,0-.7,2.14v0a3.12,3.12,0,0,1-6.1-1.36,3.44,3.44,0,0,1,.11-.38,16.55,16.55,0,0,1,1.62-3.33,17,17,0,0,1,2.31-2.79,20.2,20.2,0,0,1,5.66-3.75,30.28,30.28,0,0,1,6.12-2,34.9,34.9,0,0,1,6.26-.76,1.56,1.56,0,0,1,.3,3.09Z"/><path class="b" d="M317.87,387a28.82,28.82,0,0,1-6.21,1.33,23.81,23.81,0,0,1-6.51-.2,16.69,16.69,0,0,1-6.43-2.58,16.08,16.08,0,0,1-4.86-5.29v0a3.13,3.13,0,0,1,5.4-3.15c.06.11.13.24.18.36a10.29,10.29,0,0,0,2.6,3.76,11.61,11.61,0,0,0,4.22,2.37,19.55,19.55,0,0,0,5.25.85A25.52,25.52,0,0,0,317,384l.1,0a1.56,1.56,0,0,1,.79,3Z"/><path class="b" d="M160.87,329.32l2.84,16a10.84,10.84,0,0,0,10.67,8.94h0a10.83,10.83,0,0,0,10.68-12.66l-2.76-16a10.83,10.83,0,0,0-10.67-9h-.09A10.83,10.83,0,0,0,160.87,329.32Z"/><path class="b" d="M174.38,357.42a13.93,13.93,0,0,1-13.74-11.52l-2.84-16h0a13.94,13.94,0,0,1,13.74-16.37h.09a13.92,13.92,0,0,1,13.75,11.59l2.75,16a13.94,13.94,0,0,1-13.75,16.3Zm-10.44-28.64,2.85,16A7.71,7.71,0,0,0,182,342.17l-2.75-16a7.69,7.69,0,0,0-7.6-6.4h-.09a7.71,7.71,0,0,0-7.6,9Z"/><circle class="b" cx="171.3" cy="326.24" r="6.01"/><circle class="b" cx="171.3" cy="326.24" r="1.65" transform="translate(-0.7 0.37) rotate(-0.12)"/><path class="m" d="M171.3,333.8a7.57,7.57,0,1,1,7.58-7.56A7.58,7.58,0,0,1,171.3,333.8Zm0-12a4.45,4.45,0,1,0,4.46,4.45A4.45,4.45,0,0,0,171.3,321.79Z"/><circle class="b" cx="174.42" cy="343.75" r="6.01"/><path class="m" d="M174.42,351.32a7.57,7.57,0,1,1,7.58-7.57A7.58,7.58,0,0,1,174.42,351.32Zm0-12a4.45,4.45,0,1,0,4.46,4.44A4.45,4.45,0,0,0,174.42,339.31Z"/><ellipse class="b" cx="181.79" cy="180.88" rx="28.64" ry="21.13" transform="matrix(0.07, -1, 1, 0.07, -11.95, 348.9)"/><ellipse class="f" cx="189.4" cy="176.05" rx="11.37" ry="7.1" transform="translate(-0.07 352.02) rotate(-85.79)"/><g class="n"><ellipse class="f" cx="172.49" cy="192.03" rx="3.54" ry="7.27" transform="translate(-56.5 72.9) rotate(-20.58)"/></g><ellipse class="b" cx="303.09" cy="180.88" rx="21.13" ry="28.64" transform="translate(-12.46 22.74) rotate(-4.21)"/><ellipse class="f" cx="295.49" cy="176.05" rx="7.1" ry="11.37" transform="translate(-12.12 22.15) rotate(-4.21)"/><g class="n"><ellipse class="f" cx="312.39" cy="192.03" rx="7.27" ry="3.54" transform="translate(22.8 416.97) rotate(-69.42)"/></g><ellipse class="o" cx="108.23" cy="434.74" rx="8.94" ry="12.04" transform="translate(-70.08 23.74) rotate(-9.47)"/><ellipse class="o" cx="113.97" cy="417.52" rx="4.03" ry="2.99" transform="translate(-306.22 521.2) rotate(-88.59)"/><ellipse class="o" cx="104.25" cy="415.01" rx="4.19" ry="5.64" transform="translate(-36.38 10.87) rotate(-5.09)"/><ellipse class="o" cx="97.07" cy="422.21" rx="3.03" ry="4.07" transform="translate(-112.51 43.05) rotate(-15.98)"/><ellipse class="o" cx="378.72" cy="434.74" rx="12.04" ry="8.94" transform="translate(-112.42 736.74) rotate(-80.53)"/><ellipse class="o" cx="372.98" cy="417.52" rx="2.99" ry="4.03" transform="translate(-10.14 9.28) rotate(-1.41)"/><ellipse class="o" cx="382.7" cy="415.01" rx="5.64" ry="4.19" transform="translate(-64.61 759.42) rotate(-84.91)"/><ellipse class="o" cx="389.88" cy="422.21" rx="4.07" ry="3.03" transform="translate(-123.36 680.76) rotate(-74.02)"/><path class="f" d="M415.21,116.83a41,41,0,1,1,13.31,14.07l-19.09,3.71Z"/><g class="e"><path class="f" d="M455.15,63.68a41,41,0,0,0-45.21,30.93,40.39,40.39,0,0,1,.34-4.36,41,41,0,1,1,80.5,15A41,41,0,0,0,455.15,63.68Z"/></g><path class="b" d="M450.85,140.66a44.63,44.63,0,0,1-23-6.4l-23.15,4.49,7-21.6A43.73,43.73,0,0,1,407,90.73a44.18,44.18,0,1,1,43.84,49.93Zm-21.67-13.11,1.07.69A37.45,37.45,0,0,0,445.87,134a37.81,37.81,0,1,0-32.56-42.43A37.37,37.37,0,0,0,418,115.25l.69,1.22-4.55,14Z"/><g class="d"><path class="b" d="M415,116.43a47.4,47.4,0,0,0,76.83-20.92,42.62,42.62,0,0,1-.35,6.35,41,41,0,0,1-63,29l-19.09,3.71,5.78-17.78C415.14,116.69,415.07,116.56,415,116.43Z"/></g><path class="p" d="M437.68,85h0c3.55-3.55,9.31-2.91,12.86.64l.55.55.55-.55c3.55-3.55,9.3-4.19,12.85-.64h0a9.07,9.07,0,0,1,0,12.84l-.55.56-11.16,11.15a2.41,2.41,0,0,1-3.39,0L438.24,98.39l-.56-.56A9.09,9.09,0,0,1,437.68,85Z"/></svg>